<svg id="svg" version="1.1" xmlns="http://www.w3.org/2000/svg" xmlns:xlink="http://www.w3.org/1999/xlink" width="400" height="225" viewBox="0, 0, 400,225"><g id="svgg"><path id="path0" d="M231.250 107.011 C 227.615 108.309,227.477 108.381,227.541 108.936 C 227.582 109.282,227.754 109.504,228.021 109.554 C 228.646 109.671,228.743 109.957,228.747 111.698 L 228.750 113.293 227.760 112.986 C 223.358 111.621,219.271 116.467,220.922 121.094 C 221.950 123.975,225.281 125.205,227.831 123.645 L 228.854 123.019 229.323 123.496 C 230.026 124.212,233.816 124.122,233.920 123.387 C 233.968 123.054,233.836 122.852,233.459 122.680 L 232.931 122.440 232.872 114.883 C 232.839 110.727,232.765 107.279,232.708 107.222 C 232.520 107.034,231.570 106.897,231.250 107.011 M242.630 108.125 C 236.288 110.602,235.703 120.700,241.731 123.633 C 245.660 125.544,251.585 123.804,252.194 120.560 C 252.482 119.023,251.644 118.342,250.912 119.518 C 248.033 124.149,242.620 122.000,242.153 116.042 C 241.623 109.265,247.575 106.806,250.351 112.656 C 250.599 113.179,250.803 113.333,251.248 113.333 C 252.325 113.333,252.371 112.970,251.613 110.403 C 250.784 107.597,250.507 107.325,249.337 108.166 C 249.057 108.367,248.756 108.346,247.860 108.063 C 246.340 107.584,243.942 107.612,242.630 108.125 M183.056 108.264 C 182.656 108.663,182.946 109.382,183.620 109.663 C 184.655 110.096,184.645 109.987,184.175 115.678 C 183.646 122.088,183.719 121.758,182.691 122.407 C 182.060 122.805,181.865 123.053,181.914 123.396 C 182.014 124.098,186.965 124.227,187.146 123.532 C 187.261 123.095,187.191 123.003,185.997 122.026 L 185.431 121.563 185.737 117.917 C 185.905 115.911,186.066 114.092,186.094 113.874 C 186.123 113.656,186.976 115.547,187.990 118.077 C 190.140 123.439,190.199 123.542,191.132 123.542 C 192.072 123.542,192.039 123.600,193.940 118.577 C 194.864 116.135,195.698 114.000,195.792 113.832 C 195.893 113.652,196.066 114.962,196.213 117.023 C 196.584 122.203,196.598 122.046,195.716 122.415 C 195.091 122.676,194.984 122.814,195.039 123.289 L 195.104 123.854 198.854 123.854 C 203.165 123.854,203.745 123.577,201.888 122.404 C 201.121 121.920,201.040 121.787,201.029 120.987 C 201.022 120.501,200.855 117.914,200.658 115.238 C 200.274 110.026,200.280 109.977,201.316 109.593 C 201.793 109.415,201.890 109.268,201.837 108.802 L 201.771 108.229 199.048 108.171 C 195.687 108.100,196.041 107.771,194.146 112.734 C 193.342 114.840,192.614 116.634,192.528 116.721 C 192.441 116.808,191.645 115.060,190.758 112.837 C 189.870 110.614,188.978 108.644,188.775 108.460 C 188.393 108.114,183.377 107.942,183.056 108.264 M210.196 112.980 C 205.126 114.416,204.382 121.701,209.093 123.785 C 212.526 125.304,217.083 123.511,217.083 120.642 C 217.083 119.683,216.604 119.634,215.603 120.492 C 213.718 122.105,210.842 121.503,210.018 119.323 L 209.802 118.750 213.026 118.750 C 216.978 118.750,217.186 118.642,217.043 116.663 C 216.836 113.799,213.547 112.030,210.196 112.980 M260.313 112.988 C 252.895 114.913,255.113 125.098,262.775 124.297 C 270.253 123.515,270.152 113.337,262.662 112.810 C 261.940 112.759,260.887 112.839,260.313 112.988 M274.611 113.243 C 271.853 114.180,270.994 115.065,272.500 115.418 L 273.021 115.540 273.021 118.968 C 273.021 122.327,273.011 122.400,272.550 122.602 C 272.022 122.834,271.733 123.483,272.027 123.777 C 272.496 124.246,278.224 123.890,278.295 123.387 C 278.343 123.053,278.211 122.852,277.827 122.677 L 277.292 122.433 277.292 119.243 L 277.292 116.052 277.906 115.735 C 279.905 114.701,280.417 115.430,280.417 119.312 C 280.417 122.266,280.414 122.284,279.885 122.630 C 278.510 123.532,279.199 123.854,282.500 123.854 C 285.801 123.854,286.490 123.532,285.115 122.630 C 284.585 122.283,284.583 122.273,284.583 119.207 L 284.583 116.132 285.188 115.774 C 285.976 115.309,286.930 115.319,287.364 115.798 C 287.929 116.422,287.875 122.419,287.302 122.601 C 286.837 122.749,286.532 123.490,286.819 123.777 C 287.301 124.259,293.016 123.889,293.089 123.370 C 293.139 123.018,293.036 122.854,292.709 122.769 C 292.010 122.586,291.875 121.883,291.875 118.416 C 291.875 115.570,291.825 115.093,291.445 114.349 C 290.401 112.302,287.534 112.246,285.121 114.226 L 284.513 114.725 283.663 113.845 C 282.259 112.391,280.508 112.391,278.348 113.844 L 277.292 114.555 277.288 113.996 C 277.281 112.749,276.617 112.562,274.611 113.243 M300.000 112.846 C 296.465 114.025,295.500 114.854,296.999 115.424 L 297.500 115.615 297.500 121.667 L 297.500 127.719 296.979 127.917 C 296.379 128.145,296.250 129.042,296.788 129.249 C 297.217 129.413,302.158 129.413,302.587 129.249 C 303.139 129.037,302.988 128.182,302.344 127.874 C 301.788 127.608,301.769 127.543,301.711 125.697 L 301.652 123.794 302.545 124.104 C 305.360 125.081,308.629 123.261,309.513 120.224 C 311.026 115.027,306.466 110.915,302.240 113.664 L 301.458 114.173 301.458 113.656 C 301.458 112.955,300.788 112.582,300.000 112.846 M317.747 112.910 C 314.794 113.371,312.869 115.596,314.238 116.965 C 315.574 118.301,317.917 117.275,317.917 115.354 C 317.917 114.216,318.312 113.797,319.118 114.081 C 319.787 114.316,319.952 114.837,319.979 116.805 L 320.000 118.297 318.550 118.297 C 315.961 118.297,314.294 118.976,313.673 120.285 C 312.265 123.252,316.102 125.543,319.423 123.718 L 320.313 123.229 320.757 123.682 C 321.683 124.623,324.216 124.514,325.140 123.493 C 326.047 122.491,325.875 121.351,324.896 121.875 C 324.057 122.324,323.965 121.963,323.962 118.193 C 323.957 113.326,322.580 112.155,317.747 112.910 M331.737 113.007 C 327.286 114.399,328.201 119.229,333.127 120.341 C 335.036 120.772,335.838 121.421,335.360 122.145 C 334.513 123.426,332.835 123.137,331.198 121.429 C 329.246 119.392,328.443 120.013,329.382 122.835 C 329.875 124.314,330.178 124.573,330.943 124.164 C 331.347 123.948,331.677 123.948,332.700 124.165 C 335.877 124.839,338.591 123.565,338.901 121.253 C 339.240 118.727,338.140 117.541,334.650 116.671 C 332.820 116.215,332.140 115.673,332.516 114.970 C 333.195 113.701,334.926 114.040,336.571 115.766 C 338.272 117.550,338.820 117.165,338.324 114.533 C 337.994 112.786,337.714 112.500,336.807 112.982 C 336.205 113.301,336.054 113.305,335.123 113.020 C 333.897 112.646,332.904 112.642,331.737 113.007 M345.551 112.996 C 343.679 113.522,342.534 115.250,342.841 117.083 C 343.135 118.838,344.370 119.791,347.123 120.391 C 349.093 120.820,349.812 121.646,348.958 122.500 C 348.027 123.432,346.156 122.862,344.706 121.205 C 343.061 119.324,342.316 120.024,343.146 122.670 C 343.666 124.329,343.921 124.577,344.684 124.168 C 345.078 123.958,345.435 123.958,346.501 124.170 C 350.199 124.905,352.604 123.466,352.604 120.519 C 352.604 118.243,351.824 117.505,348.527 116.663 C 346.494 116.144,346.206 115.960,346.292 115.233 C 346.478 113.650,348.624 113.932,350.347 115.767 C 352.019 117.547,352.646 117.026,352.074 114.330 C 351.750 112.804,351.491 112.573,350.611 113.028 C 350.079 113.303,349.837 113.326,349.428 113.140 C 348.594 112.760,346.649 112.687,345.551 112.996 M212.399 114.795 C 212.633 115.054,212.815 115.654,212.874 116.357 L 212.968 117.500 211.380 117.500 L 209.792 117.500 209.792 116.760 C 209.792 114.913,211.405 113.697,212.399 114.795 M262.248 114.701 C 263.728 115.738,264.700 120.476,263.752 122.031 C 262.912 123.409,261.457 122.676,260.607 120.447 C 259.247 116.878,260.266 113.313,262.248 114.701 M228.135 114.901 L 228.750 115.219 228.750 118.294 L 228.750 121.368 228.145 121.726 C 226.304 122.813,225.000 121.476,225.000 118.500 C 225.000 115.293,226.209 113.905,228.135 114.901 M304.414 115.403 C 306.335 116.913,305.495 122.500,303.347 122.500 C 301.780 122.500,301.667 122.249,301.667 118.786 L 301.667 115.722 302.240 115.366 C 302.998 114.896,303.786 114.909,304.414 115.403 M319.959 120.710 C 320.028 122.051,319.876 122.283,318.921 122.288 C 317.750 122.295,317.244 120.673,318.137 119.779 C 319.056 118.860,319.886 119.284,319.959 120.710 " stroke="none" fill="#fcfcfc" fill-rule="evenodd"></path><path id="path1" d="M56.015 89.402 C 54.885 90.532,58.031 98.629,62.590 106.322 C 63.122 107.221,64.082 109.003,64.723 110.281 C 71.592 123.992,77.296 129.059,89.271 132.089 C 99.094 134.574,108.376 139.443,111.699 143.853 C 112.082 144.362,112.443 144.782,112.500 144.785 C 112.557 144.789,112.579 139.331,112.549 132.657 L 112.493 120.523 110.859 118.855 C 109.960 117.938,108.659 116.432,107.967 115.509 C 106.168 113.108,103.656 110.922,101.314 109.718 C 100.065 109.077,96.776 108.112,90.914 106.669 C 83.187 104.766,81.262 104.024,78.449 101.868 C 74.586 98.908,72.400 100.060,73.664 104.389 C 75.011 109.004,78.547 111.470,86.842 113.581 C 92.608 115.047,93.977 115.744,93.219 116.826 C 92.249 118.211,89.465 118.669,85.852 118.039 C 79.373 116.908,73.270 111.073,66.117 99.167 C 62.330 92.863,60.376 90.142,59.063 89.341 C 58.170 88.796,56.589 88.828,56.015 89.402 " stroke="none" fill="#7a9972" fill-rule="evenodd"></path><path id="path2" d="M122.083 82.423 C 117.972 83.037,114.654 84.988,112.852 87.852 L 112.303 88.724 112.809 89.831 C 114.602 93.748,114.594 100.230,112.789 106.437 C 112.675 106.828,112.832 106.731,113.519 105.986 C 114.186 105.263,114.875 104.828,116.416 104.157 C 126.189 99.904,127.902 97.953,128.644 90.232 C 128.994 86.585,129.313 85.752,130.769 84.696 C 132.467 83.463,131.824 82.615,129.626 83.191 C 123.465 84.807,118.450 89.455,115.722 96.077 C 114.883 98.114,114.779 97.920,115.522 95.707 C 117.355 90.245,120.961 85.895,125.615 83.530 C 126.514 83.073,126.840 82.812,126.643 82.708 C 126.302 82.527,122.836 82.310,122.083 82.423 " stroke="none" fill="#ccf4c4" fill-rule="evenodd"></path><path id="path3" d="M166.092 89.219 C 164.987 89.573,162.038 93.331,160.003 96.979 C 155.545 104.968,147.410 115.186,145.491 115.206 C 145.360 115.207,145.202 115.342,145.139 115.504 C 144.961 115.968,141.734 117.459,139.915 117.918 C 135.724 118.974,131.080 118.089,131.291 116.274 C 131.390 115.419,132.944 114.744,137.500 113.575 C 145.050 111.639,148.028 109.949,150.049 106.455 C 151.632 103.718,151.581 100.203,149.957 100.209 C 149.119 100.213,147.849 100.792,146.563 101.755 C 143.586 103.985,139.968 105.471,135.417 106.333 C 133.931 106.614,127.142 108.419,125.452 108.981 C 121.999 110.131,119.107 112.452,116.071 116.509 C 115.236 117.625,114.439 118.609,114.301 118.696 C 114.163 118.783,113.748 119.227,113.379 119.683 L 112.708 120.512 112.708 132.459 L 112.708 144.407 113.329 143.922 C 113.670 143.656,114.535 142.898,115.250 142.240 C 115.966 141.581,116.648 141.041,116.765 141.041 C 116.883 141.040,117.407 140.641,117.930 140.155 C 118.453 139.669,119.236 138.994,119.672 138.657 C 120.107 138.319,120.851 137.734,121.325 137.356 C 121.799 136.979,122.305 136.670,122.448 136.669 C 122.591 136.668,122.708 136.588,122.708 136.491 C 122.708 136.395,123.154 136.074,123.698 135.779 C 124.842 135.158,127.500 134.128,127.500 134.306 C 127.500 134.372,127.623 134.324,127.774 134.198 C 128.068 133.955,132.580 132.610,133.685 132.436 C 134.051 132.379,134.436 132.279,134.542 132.213 C 134.647 132.148,135.052 132.054,135.440 132.005 C 136.494 131.871,140.593 130.502,142.387 129.685 C 143.253 129.290,144.032 128.947,144.117 128.922 C 144.201 128.898,144.365 128.803,144.479 128.712 C 144.594 128.622,145.578 127.963,146.667 127.249 C 148.516 126.036,153.542 121.404,153.542 120.913 C 153.542 120.806,153.823 120.410,154.167 120.034 C 154.510 119.657,154.792 119.318,154.792 119.280 C 154.792 119.241,155.339 118.333,156.008 117.261 C 156.677 116.189,158.027 113.766,159.007 111.875 C 159.987 109.984,161.369 107.406,162.078 106.146 C 163.773 103.133,167.019 96.486,168.100 93.815 C 169.691 89.881,168.995 88.287,166.092 89.219 " stroke="none" fill="#4c3434" fill-rule="evenodd"></path><path id="path4" d="M99.896 82.423 C 99.438 82.467,98.739 82.557,98.343 82.623 L 97.623 82.743 99.120 83.531 C 103.809 85.998,107.398 90.346,109.159 95.690 C 109.800 97.638,109.595 97.628,108.794 95.673 C 106.346 89.694,100.871 84.659,95.254 83.224 C 92.853 82.610,92.054 83.345,93.810 84.553 C 95.425 85.664,95.739 86.470,96.050 90.311 C 96.633 97.509,98.805 100.097,107.270 103.684 C 110.030 104.853,110.860 105.423,111.992 106.924 L 112.422 107.493 113.082 104.840 C 114.590 98.782,114.451 93.590,112.675 89.635 C 112.431 89.091,112.129 88.411,112.004 88.125 C 110.545 84.774,104.599 81.974,99.896 82.423 M169.007 90.625 C 169.007 91.026,169.050 91.190,169.102 90.990 C 169.154 90.789,169.154 90.461,169.102 90.260 C 169.050 90.060,169.007 90.224,169.007 90.625 M151.303 102.188 C 151.305 102.646,151.348 102.809,151.397 102.550 C 151.447 102.291,151.445 101.916,151.393 101.716 C 151.341 101.517,151.300 101.729,151.303 102.188 M148.322 108.698 L 147.604 109.479 148.385 108.761 C 149.113 108.093,149.262 107.917,149.103 107.917 C 149.069 107.917,148.717 108.268,148.322 108.698 M151.133 109.844 L 150.521 110.521 151.198 109.909 C 151.570 109.572,151.875 109.268,151.875 109.232 C 151.875 109.071,151.703 109.213,151.133 109.844 M149.261 111.927 L 148.438 112.813 149.323 111.989 C 150.146 111.223,150.304 111.042,150.146 111.042 C 150.112 111.042,149.714 111.440,149.261 111.927 M112.750 120.250 C 112.457 120.543,112.379 144.583,112.672 144.583 C 112.767 144.583,113.071 144.326,113.349 144.010 L 113.854 143.438 113.281 143.943 L 112.708 144.448 112.708 132.474 C 112.708 123.439,112.770 120.439,112.958 120.250 C 113.096 120.112,113.161 120.000,113.104 120.000 C 113.047 120.000,112.888 120.112,112.750 120.250 M151.140 123.594 L 149.688 125.104 151.198 123.651 C 152.601 122.302,152.803 122.083,152.651 122.083 C 152.619 122.083,151.939 122.763,151.140 123.594 " stroke="none" fill="#447c5b" fill-rule="evenodd"></path></g></svg>